<?xml version="1.0" encoding="utf-8"?>
<!-- Generator: Adobe Illustrator 19.1.0, SVG Export Plug-In . SVG Version: 6.00 Build 0)  -->
<svg version="1.1" id="Layer_1" xmlns="http://www.w3.org/2000/svg" xmlns:xlink="http://www.w3.org/1999/xlink" x="0px" y="0px"
	 viewBox="0 0 1013.5 518.9" style="enable-background:new 0 0 1013.5 518.9;" xml:space="preserve">
<style type="text/css">
	.st0{fill:#333333;}
	.st1{fill:#FFFFFF;}
</style>
<path class="st0" d="M995.3,313.4c0-0.4,0-0.8,0-1.3V45.1c0-17.4-14.1-31.5-31.5-31.5h-66.8c-2.9,0-5.7,0.4-8.3,1.1
	c-2.7-0.7-5.5-1.1-8.3-1.1h-66.8c-17.4,0-31.5,14.1-31.5,31.5v73.8l-75.4-93.6c-6-7.4-15-11.7-24.5-11.7h-68.9c-8,0-15.3,3-20.9,7.9
	c-5.6-4.9-12.9-7.9-20.9-7.9h-217c-8,0-15.3,3-20.9,7.9c-5.6-4.9-12.9-7.9-20.9-7.9H45.8c-17.4,0-31.5,14.1-31.5,31.5v267.1
	c0,13.1,8,24.3,19.3,29.1L17.2,472.8c-1.1,9,1.7,18,7.6,24.7c6,6.8,14.6,10.6,23.6,10.6h37.2c15.8,0,29.1-11.6,31.2-27.2h17.5
	c2.1,15.6,15.4,27.2,31.2,27.2h37.2c0.8,0,1.5,0,2.3-0.1c0.8,0.1,1.5,0.1,2.3,0.1h36.3c17.4,0,31.5-14.1,31.5-31.5v-4.8h5.4
	l4.9,14.7c4.3,12.9,16.3,21.6,29.9,21.6h37.2c1.5,0,3-0.1,4.5-0.3c1.5,0.2,3,0.3,4.6,0.3h36.3c17.4,0,31.5-14.1,31.5-31.5v-4.8h5.4
	l4.9,14.7c4.3,12.9,16.3,21.6,29.9,21.6h37.2c1.5,0,3-0.1,4.5-0.3c1.5,0.2,3,0.3,4.6,0.3H661c1.5,0,3.1-0.1,4.5-0.3
	c1.5,0.2,3,0.3,4.5,0.3h145.2c1.5,0,3.1-0.1,4.5-0.3c1.5,0.2,3,0.3,4.5,0.3h145.2c17.4,0,31.5-14.1,31.5-31.5V331.5
	C1001,324.8,998.9,318.5,995.3,313.4z M892.1,408.9v-9.6h9.6v9.6H892.1z M711.6,300.4v-62.1l52.6,65.3c-9.9,5.3-16.7,15.8-16.7,27.8
	v23h-9.6v-23C737.8,315.9,726.5,302.9,711.6,300.4z M583.5,408.9v-9.6h9.6v9.6H583.5z M486.3,163.8h-46.4l2.5-20.5h41.2L486.3,163.8
	z M422.9,300l0.8-6.4h78.8l0.8,6.4H422.9z M214.6,143.4v8.5l-20.7,62.1H144v-70.6H214.6z"/>
<g>
	<path class="st1" d="M28.4,314.2V47.1h267.1v116.8l-50.1,150.2H28.4z M95.2,113.9v133.5h104l29.5-88.5v-45.1H95.2z"/>
	<path class="st1" d="M378.6,264.1l-6.3,50.1h-68.4l33.4-267.1h217l33.4,267.1h-68.4l-6.2-50.1H378.6z M397.3,113.9L387,197.3h117.7
		l-10.5-83.5H397.3z"/>
	<path class="st1" d="M662.7,151.1v163.1H596V47.1h68.9l131.4,163.1V47.1H863v267.1h-68.9L662.7,151.1z"/>
	<path class="st1" d="M946.5,314.2h-66.8V47.1h66.8V314.2z"/>
</g>
<g>
	<path class="st1" d="M71.7,451.4l-3.4,27.2H31.1l18.1-145.2h118l18.1,145.2h-37.2l-3.4-27.2H71.7z M81.9,369.8l-5.6,45.4h64
		l-5.7-45.4H81.9z"/>
	<path class="st1" d="M226.2,442.4v36.3h-36.3V333.5h145.2v36.3l-18.1,54.4l18.1,54.4h-37.2l-12.1-36.3H226.2z M226.2,369.8v36.3
		h59.6l12.1-36.3H226.2z"/>
	<path class="st1" d="M380.5,442.4v36.3h-36.3V333.5h145.2v36.3l-18.1,54.4l18.1,54.4h-37.2l-12.1-36.3H380.5z M380.5,369.8v36.3
		h59.6l12.1-36.3H380.5z"/>
	<path class="st1" d="M498.4,333.5h145.2v145.2H498.4V333.5z M534.7,369.8v72.6h72.6v-72.6H534.7z"/>
	<path class="st1" d="M652.7,333.5H689v54.4h72.6v-54.4h36.3v145.2H652.7v-36.3h108.9v-18.1H652.7V333.5z"/>
	<path class="st1" d="M807,333.5h145.2v145.2H807V333.5z M843.3,369.8v72.6h72.6v-72.6H843.3z"/>
</g>
</svg>
