<?xml version="1.0" standalone="no"?>
<!DOCTYPE svg PUBLIC "-//W3C//DTD SVG 20010904//EN"
 "http://www.w3.org/TR/2001/REC-SVG-20010904/DTD/svg10.dtd">
<svg version="1.0" xmlns="http://www.w3.org/2000/svg"
 width="196.000000pt" height="196.000000pt" viewBox="0 0 196.000000 196.000000"
 preserveAspectRatio="xMidYMid meet">
<metadata>
Created by potrace 1.11, written by Peter Selinger 2001-2013
</metadata>
<g transform="translate(0.000000,196.000000) scale(0.100000,-0.100000)"
fill="#000000" stroke="none">
<path d="M853 1950 c-145 -20 -320 -90 -437 -174 -139 -100 -277 -275 -335
-424 -59 -154 -66 -193 -65 -377 0 -156 3 -178 28 -259 53 -176 125 -299 243
-419 139 -141 297 -230 488 -273 116 -27 320 -25 438 4 352 87 622 350 719
699 19 66 22 104 22 253 0 149 -3 187 -22 253 -96 347 -370 614 -717 698 -93
22 -273 32 -362 19z m297 -92 c0 -5 9 -6 20 -3 12 4 20 2 20 -5 0 -6 11 -8 25
-6 16 3 23 1 19 -5 -3 -6 0 -9 7 -8 8 2 25 -3 38 -10 19 -11 22 -11 15 1 -6
11 -5 11 9 -1 9 -7 17 -10 17 -5 0 4 7 -1 15 -12 8 -10 15 -15 15 -10 0 5 10
1 22 -10 12 -10 18 -13 14 -6 -7 11 -4 12 13 3 11 -7 21 -16 21 -22 0 -6 5 -7
10 -4 6 3 13 -1 16 -9 3 -9 10 -14 14 -11 4 3 13 -2 20 -10 7 -8 16 -12 21 -9
5 3 9 -2 9 -11 0 -11 5 -15 15 -12 8 4 17 1 21 -5 5 -7 2 -8 -7 -4 -8 4 -5 0
6 -8 11 -9 28 -23 38 -31 9 -8 22 -15 29 -15 6 0 8 -3 5 -6 -4 -4 1 -14 11
-23 10 -9 25 -29 35 -44 10 -15 22 -25 27 -22 6 4 10 -1 10 -9 0 -8 7 -22 16
-30 8 -9 12 -16 8 -16 -4 0 -1 -6 8 -12 17 -14 36 -64 22 -56 -5 3 -18 -4 -29
-15 -11 -11 -14 -16 -6 -12 9 5 12 4 7 -3 -4 -7 -12 -12 -18 -12 -5 0 -25 -15
-44 -34 -19 -19 -34 -39 -34 -44 0 -6 -5 -14 -12 -18 -7 -5 -9 -2 -3 7 4 8 -9
-3 -29 -23 -20 -20 -36 -41 -36 -47 0 -5 -5 -13 -12 -17 -7 -5 -8 -3 -3 7 8
12 6 12 -8 0 -9 -7 -14 -17 -11 -22 3 -5 0 -9 -6 -9 -6 0 -23 -12 -38 -27 -15
-15 -18 -20 -7 -12 18 13 19 13 6 -3 -7 -10 -20 -18 -28 -18 -8 0 -11 -4 -8
-10 3 -5 -2 -10 -12 -10 -10 0 -14 -4 -8 -8 6 -4 11 -13 13 -21 2 -8 13 -25
25 -37 12 -13 22 -29 22 -36 1 -7 6 -12 13 -11 7 2 9 -4 5 -14 -4 -10 -2 -14
4 -10 6 4 14 -4 17 -18 4 -14 11 -25 16 -25 6 0 10 -6 10 -14 0 -8 10 -22 22
-30 12 -9 18 -16 13 -16 -6 0 -1 -7 9 -15 11 -8 17 -15 13 -15 -8 0 4 -16 38
-52 12 -12 14 -18 5 -14 -8 4 -4 -2 10 -14 14 -12 18 -19 10 -15 -10 4 -9 1 3
-8 9 -8 17 -18 17 -23 0 -5 10 -20 21 -34 11 -14 17 -19 13 -11 -5 10 -3 12 5
7 7 -5 10 -14 7 -22 -3 -8 1 -14 10 -14 8 0 12 -4 9 -10 -3 -5 -1 -10 5 -10 6
0 8 -4 5 -10 -3 -5 -1 -10 4 -10 6 0 11 -11 11 -25 0 -14 -5 -25 -11 -25 -5 0
-8 -4 -5 -9 3 -5 -1 -12 -10 -15 -8 -3 -12 -10 -9 -16 3 -6 0 -13 -8 -16 -9
-3 -18 -17 -21 -30 -4 -14 -11 -22 -16 -19 -5 3 -21 -12 -35 -35 -14 -22 -30
-40 -37 -40 -6 0 -8 -3 -5 -6 7 -8 -36 -44 -52 -44 -6 0 -18 -11 -27 -25 -9
-14 -19 -24 -21 -21 -5 5 -15 -3 -48 -32 -8 -7 -15 -10 -15 -6 0 4 -7 -1 -16
-12 -8 -10 -12 -13 -9 -6 6 11 3 12 -14 3 -11 -7 -21 -16 -21 -21 0 -5 -7 -7
-15 -4 -9 4 -18 -1 -21 -11 -4 -9 -13 -14 -20 -11 -8 3 -14 1 -14 -4 0 -5 -7
-7 -15 -4 -8 4 -15 1 -15 -6 0 -6 -4 -9 -9 -5 -5 3 -12 1 -16 -4 -3 -6 -12 -8
-20 -4 -8 3 -15 1 -15 -4 0 -5 -6 -10 -12 -11 -7 -1 -29 -4 -48 -7 -19 -3 -48
-7 -65 -8 l-30 -2 -1 395 c0 217 2 401 4 407 2 7 8 10 13 7 5 -3 9 2 9 11 0 9
4 14 9 11 4 -3 20 8 34 24 17 18 33 27 42 24 9 -4 13 -9 10 -12 -3 -3 7 -19
22 -35 16 -17 21 -27 13 -23 -8 4 -6 0 4 -8 11 -9 16 -16 10 -16 -5 0 -1 -5 9
-11 9 -5 17 -14 17 -20 0 -9 8 -21 38 -54 6 -7 12 -18 12 -24 0 -5 8 -15 18
-20 9 -6 13 -11 8 -11 -5 0 2 -10 15 -22 25 -23 29 -30 29 -49 0 -5 5 -7 10
-4 6 3 10 -3 10 -14 0 -12 4 -21 9 -21 5 0 13 -9 16 -20 4 -11 11 -17 17 -14
7 5 9 1 5 -9 -4 -11 -1 -17 9 -17 8 0 12 -4 9 -10 -3 -5 -1 -10 5 -10 6 0 8
-4 5 -10 -3 -5 -1 -10 4 -10 6 0 11 -7 11 -16 0 -8 5 -12 10 -9 6 3 10 2 10
-2 0 -5 38 -9 84 -9 l84 0 -31 44 c-18 25 -38 47 -44 49 -7 3 -10 9 -7 14 3 5
0 9 -7 9 -7 0 -9 3 -6 6 4 4 -3 15 -15 25 -11 11 -17 19 -13 19 5 0 0 7 -11
15 -10 8 -15 15 -11 15 4 0 -5 12 -20 26 -15 14 -21 23 -13 19 8 -4 4 3 -10
16 -14 13 -21 22 -15 19 6 -3 3 3 -7 12 -11 9 -20 21 -21 25 -1 4 -6 7 -10 5
-5 -1 -6 2 -2 8 3 5 -1 13 -9 16 -9 3 -13 10 -10 15 3 5 -6 20 -20 34 -14 14
-22 25 -18 25 4 0 -1 5 -11 11 -9 6 -15 14 -12 20 4 5 2 9 -4 9 -5 0 -13 9
-16 20 -4 11 -11 18 -16 15 -5 -4 -9 1 -9 9 0 8 -8 20 -17 25 -10 6 -14 11 -9
11 5 0 1 9 -8 19 -17 18 -17 20 3 40 12 12 19 21 16 21 -3 0 0 6 7 14 7 8 16
12 21 9 4 -2 7 0 7 4 0 5 7 18 16 29 8 10 12 13 8 5 -5 -9 -3 -12 4 -7 7 4 12
13 12 21 0 8 5 17 12 21 7 5 8 3 3 -6 -5 -9 -4 -11 3 -6 7 4 12 13 12 21 0 8
5 17 12 21 7 5 8 3 3 -7 -8 -12 -6 -12 8 0 9 7 17 19 17 27 0 7 5 16 12 20 7
4 8 3 4 -4 -14 -22 0 -12 39 30 22 23 34 38 26 33 -10 -5 -12 -4 -7 3 4 7 13
12 20 12 7 0 31 20 53 44 23 25 44 42 47 39 3 -4 6 1 6 11 0 9 5 14 10 11 6
-3 10 -2 10 2 0 5 -41 9 -91 9 l-90 -1 -42 -45 c-23 -25 -55 -55 -71 -67 -17
-13 -27 -23 -24 -23 9 0 -66 -74 -106 -105 -20 -15 -34 -31 -31 -35 3 -5 -4
-11 -15 -15 -11 -3 -20 -13 -20 -21 0 -8 -6 -13 -12 -12 -7 2 -12 -3 -10 -10
1 -8 -2 -11 -6 -8 -5 3 -18 -4 -28 -17 -19 -21 -19 -21 1 -7 19 14 19 14 6 -2
-7 -10 -20 -18 -28 -18 -8 0 -11 -4 -8 -10 3 -5 0 -8 -7 -5 -11 4 -13 83 -12
403 1 218 2 397 3 397 33 3 71 -1 71 -7z m-284 -240 c0 -131 -4 -238 -8 -238
-4 0 -8 5 -8 11 0 5 -4 8 -9 4 -5 -3 -18 6 -29 20 -11 13 -22 21 -26 18 -3 -3
-6 -2 -6 4 0 10 -19 19 -58 28 -8 2 -21 7 -30 11 -33 14 -69 17 -192 17 -106
-1 -167 -5 -190 -13 -3 -2 -8 -2 -13 -1 -4 0 -7 -3 -7 -8 0 -6 -9 -9 -20 -8
-27 2 -23 14 20 67 47 58 124 139 115 120 -4 -8 7 1 24 20 18 19 30 28 26 20
-3 -8 2 -5 11 8 9 12 23 22 30 22 8 0 14 5 14 10 0 6 7 10 15 10 8 0 15 3 15
8 0 8 110 58 122 55 4 -2 8 2 8 8 0 6 7 9 15 5 8 -3 15 -2 15 3 0 7 52 20 102
25 3 1 9 3 12 7 3 3 16 5 29 5 l23 0 0 -238z m-256 -272 c38 -6 70 -19 70 -28
0 -5 4 -6 10 -3 5 3 13 -7 17 -22 9 -35 10 -40 12 -56 1 -9 21 -12 74 -11 l73
2 0 -176 c-1 -182 -7 -207 -40 -160 -9 12 -16 18 -16 13 0 -6 -10 1 -21 15
-11 14 -18 18 -14 10 4 -8 -2 -6 -12 5 -10 11 -25 21 -33 23 -8 2 -17 8 -18
13 -2 5 -8 7 -13 3 -5 -3 -9 0 -9 5 0 6 -7 11 -15 11 -8 0 -15 5 -15 12 0 6
-3 8 -6 5 -7 -7 -104 41 -116 58 -4 5 -8 7 -8 2 0 -9 -95 42 -119 65 -11 9
-21 15 -23 13 -2 -2 -22 12 -44 33 -35 32 -41 42 -39 75 2 39 28 76 56 80 8 2
19 5 24 8 6 3 26 6 45 8 19 2 36 4 38 5 2 3 117 -4 142 -8z m1208 -79 c-1 -2
3 -11 11 -21 8 -9 11 -19 8 -23 -4 -3 -3 -11 2 -17 36 -44 36 -419 0 -442 -5
-3 -7 -10 -4 -15 4 -5 2 -9 -4 -9 -12 0 -37 41 -33 53 1 5 -2 6 -7 3 -8 -6
-18 8 -19 28 0 5 -5 12 -10 15 -23 14 -71 84 -65 95 3 6 3 8 -2 4 -7 -7 -27
13 -36 37 -2 5 -16 23 -31 39 -15 16 -25 33 -22 37 2 4 -2 10 -8 12 -14 5 175
200 202 209 15 5 24 3 18 -5z m-1634 -167 c5 0 16 -7 25 -15 23 -22 90 -65
102 -65 6 0 7 -5 3 -12 -4 -7 -3 -8 5 -4 6 4 18 0 27 -8 9 -9 20 -14 25 -11 5
4 9 1 9 -4 0 -6 6 -11 14 -11 8 0 21 -7 30 -15 8 -9 18 -15 21 -15 9 1 80 -34
86 -43 3 -5 9 -8 13 -8 20 3 26 0 20 -11 -4 -7 -3 -8 5 -4 11 7 68 -26 83 -49
4 -5 8 -7 8 -2 0 4 16 -7 35 -24 19 -18 32 -35 30 -40 -3 -4 -1 -10 4 -13 14
-9 -5 -76 -27 -97 -21 -18 -44 -26 -117 -36 -68 -10 -193 -5 -201 8 -2 5 -11
6 -19 2 -8 -3 -15 0 -15 7 0 6 -4 9 -9 6 -14 -9 -33 21 -34 51 l-2 28 -87 -1
c-73 -1 -86 1 -86 15 0 9 -3 27 -6 41 -16 66 -20 103 -20 200 1 188 13 229 48
166 12 -20 25 -36 30 -36z m682 -765 c0 -229 0 -232 -20 -230 -12 1 -21 3 -21
5 0 1 -9 3 -20 5 -21 3 -94 19 -112 24 -2 1 -5 0 -7 -1 -2 -2 -14 6 -27 17
-12 11 -19 14 -15 7 7 -11 4 -11 -15 0 -13 7 -32 20 -43 28 -10 8 -20 14 -22
13 -12 -8 -24 -1 -18 9 4 6 3 8 -4 4 -6 -3 -18 1 -26 10 -9 8 -16 13 -16 9 0
-6 -17 7 -48 36 -9 9 -27 22 -39 28 -13 6 -23 19 -23 27 0 8 -4 13 -8 10 -4
-2 -23 12 -42 31 -19 20 -28 33 -20 29 8 -4 7 -1 -3 7 -22 18 -67 78 -67 88 0
4 9 7 20 6 11 -1 20 -4 20 -7 0 -4 6 -7 13 -7 6 -1 32 -5 57 -9 49 -9 256 -9
305 -1 17 3 44 10 60 17 17 6 31 11 32 11 9 -2 72 42 76 53 3 7 11 13 19 13
12 0 14 -40 14 -232z"/>
</g>
</svg>
